# xmcd
#
# Track frame offsets:
#	150
#	14550
#	26128
#	39162
#	50563
#	65241
#	78384
#	92312
#	104347
#	118542
#	130354
#	144524
#	157302
#	170496
#	183124
#
# Disc length: 2660 seconds
#
# Revision: 1
# Processed by: cddbd v1.5.2PL0 Copyright (c) Steve Scherf et al.
# Submitted via: audiograbber 1.83.01
#
DISCID=cc0a620f
DTITLE=CLASSIC COUNTRY VOL 331 - CB60331
DYEAR=1900
DGENRE=KARAOKE
TTITLE0=HAWKSHAW, HAWKINS - SLOW POKE
TTITLE1=WEBB PIERCE - IT'S BEEN SO LONG
TTITLE2=PATSY CLINE - CRAZY
TTITLE3=FARON YOUNG - IF YOU AIN'T LOVIN (YOU AIN'T LIVIN)
TTITLE4=DOLLY PARTON - MULE SKINNER BLUES
TTITLE5=ERNEST TUBB - WALTZ ACROSS TEXAS
TTITLE6=PATSY CLINE - SHE'S GOT YOU
TTITLE7=FARON YOUNG - HELLO WALLS
TTITLE8=JOHNNY and JUNE - JACKSON
TTITLE9=LORETTA LYNN - FIST CITY
TTITLE10=JACK GREENE - STATUE OF A FOOL
TTITLE11=JIM REEVES - MEXICAN JOE
TTITLE12=PATSY CLINE - SWEET DREAMS
TTITLE13=PORTER WAGNER - MISERY LOVES COMPANY
TTITLE14=TOM T HALL - A WEEK IN THE COUNTY JAIL
EXTD=
EXTT0=
EXTT1=
EXTT2=
EXTT3=
EXTT4=
EXTT5=
EXTT6=
EXTT7=
EXTT8=
EXTT9=
EXTT10=
EXTT11=
EXTT12=
EXTT13=
EXTT14=
PLAYORDER=
